# xmcd
#
# Track frame offsets:
#	150
#	13883
#	38909
#	56609
#	74636
#	90441
#	101215
#
# Disc length: 1448 seconds
#
# Revision: 1
# Processed by: cddbd v1.5PL3 Copyright (c) Steve Scherf et al.
# Submitted via: CDex 1.50Beta5
#
DISCID=5e05a607
DTITLE=Osamu Kubota - Snow In Saigon
DYEAR=1900
DGENRE=
TTITLE0=Snow In Saigon
TTITLE1=Libra Negra
TTITLE2=Larmes De La Lune
TTITLE3=Piosenka
TTITLE4=Mes Petites Inventions
TTITLE5=Consolation
TTITLE6=Presto
EXTD=
EXTT0=
EXTT1=
EXTT2=
EXTT3=
EXTT4=
EXTT5=
EXTT6=
PLAYORDER=
